<svg xmlns="http://www.w3.org/2000/svg" width="32" height="32" viewBox="0 0 32 32"><path d="M23.169,0H8.831A8.841,8.841,0,0,0,0,8.831V23.169A8.841,8.841,0,0,0,8.831,32H23.169A8.841,8.841,0,0,0,32,23.169V8.831A8.841,8.841,0,0,0,23.169,0Zm5.992,23.169a6,6,0,0,1-5.992,5.992H8.831a6,6,0,0,1-5.991-5.992V8.831A6,6,0,0,1,8.831,2.839H23.169a6,6,0,0,1,5.992,5.992V23.169Z" fill="#fff"/><path d="M50.258,40.97a9.289,9.289,0,1,0,9.29,9.29A9.3,9.3,0,0,0,50.258,40.97Zm0,15.38a6.091,6.091,0,1,1,6.091-6.09A6.1,6.1,0,0,1,50.258,56.35Z" transform="translate(-34.258 -34.259)" fill="#fff"/><path d="M120.723,28.251a1.8,1.8,0,1,0,1.274.527A1.809,1.809,0,0,0,120.723,28.251Z" transform="translate(-95.958 -22.796)" fill="#fff"/></svg>