<svg xmlns="http://www.w3.org/2000/svg" width="39.385" height="32" viewBox="0 0 39.385 32"><g transform="translate(0 0)"><path d="M39.385,51.788a16.835,16.835,0,0,1-4.652,1.275A8.029,8.029,0,0,0,38.284,48.6a16.136,16.136,0,0,1-5.12,1.954A8.074,8.074,0,0,0,19.2,56.076a8.314,8.314,0,0,0,.187,1.841A22.854,22.854,0,0,1,2.742,49.472,8.076,8.076,0,0,0,5.223,60.263a7.974,7.974,0,0,1-3.648-.994v.089a8.111,8.111,0,0,0,6.469,7.934,8.059,8.059,0,0,1-2.117.266A7.139,7.139,0,0,1,4.4,67.419a8.151,8.151,0,0,0,7.545,5.625A16.224,16.224,0,0,1,1.932,76.487,15.125,15.125,0,0,1,0,76.377,22.731,22.731,0,0,0,12.386,80c14.858,0,22.981-12.308,22.981-22.976,0-.357-.012-.7-.03-1.044A16.108,16.108,0,0,0,39.385,51.788Z" transform="translate(0 -48)" fill="#fff"/></g></svg>