<svg xmlns="http://www.w3.org/2000/svg" width="45.47" height="32" viewBox="0 0 45.47 32"><path d="M43.7,48.664c-1.641-1.951-4.672-2.747-10.459-2.747H12.231c-5.92,0-9,.847-10.637,2.924C0,50.867,0,53.851,0,57.981v7.872c0,8,1.892,12.064,12.231,12.064H33.239c5.019,0,7.8-.7,9.6-2.424,1.845-1.766,2.632-4.649,2.632-9.64V57.981C45.47,53.625,45.347,50.624,43.7,48.664ZM29.192,63l-9.54,4.986a1.467,1.467,0,0,1-2.146-1.3V56.75a1.467,1.467,0,0,1,2.143-1.3l9.54,4.954a1.467,1.467,0,0,1,0,2.6Z" transform="translate(0 -45.917)" fill="#fff"/></svg>